<svg width="960" height="240" viewBox="0 0 960 240" fill="none" xmlns="http://www.w3.org/2000/svg">
  <defs>
    <linearGradient id="lineaeGradient" x1="40" y1="40" x2="220" y2="200" gradientUnits="userSpaceOnUse">
      <stop stop-color="#0F172A"/>
      <stop offset="1" stop-color="#334155"/>
    </linearGradient>
    <linearGradient id="accentGradient" x1="100" y1="60" x2="180" y2="160" gradientUnits="userSpaceOnUse">
      <stop stop-color="#38BDF8"/>
      <stop offset="1" stop-color="#6366F1"/>
    </linearGradient>
  </defs>

  <rect width="960" height="240" rx="32" fill="#F8FAFC"/>

  <g transform="translate(40 40)">
    <rect x="0" y="0" width="180" height="160" rx="28" fill="url(#lineaeGradient)"/>

    <path
      d="M42 46H92M42 80H138M42 114H76"
      stroke="#E2E8F0"
      stroke-width="10"
      stroke-linecap="round"
    />

    <path
      d="M92 46H124V80H138M76 114H124V80"
      stroke="url(#accentGradient)"
      stroke-width="8"
      stroke-linecap="round"
      stroke-linejoin="round"
    />

    <circle cx="92" cy="46" r="10" fill="#38BDF8"/>
    <circle cx="138" cy="80" r="10" fill="#6366F1"/>
    <circle cx="76" cy="114" r="10" fill="#22C55E"/>
    <circle cx="124" cy="80" r="8" fill="#F8FAFC"/>

    <rect x="24" y="24" width="132" height="112" rx="18" stroke="rgba(255,255,255,0.12)" stroke-width="2"/>
  </g>

  <g transform="translate(260 62)">
    <text
      x="0"
      y="58"
      fill="#0F172A"
      font-family="Inter, ui-sans-serif, system-ui, -apple-system, Segoe UI, Roboto, Helvetica, Arial, sans-serif"
      font-size="72"
      font-weight="800"
      letter-spacing="6"
    >
      LINEAE
    </text>

    <text
      x="2"
      y="104"
      fill="#475569"
      font-family="Inter, ui-sans-serif, system-ui, -apple-system, Segoe UI, Roboto, Helvetica, Arial, sans-serif"
      font-size="24"
      font-weight="500"
      letter-spacing="1.5"
    >
      UML diagram editor
    </text>

    <path
      d="M4 128H278"
      stroke="#CBD5E1"
      stroke-width="4"
      stroke-linecap="round"
    />
    <circle cx="4" cy="128" r="6" fill="#38BDF8"/>
    <circle cx="278" cy="128" r="6" fill="#6366F1"/>
  </g>
</svg>
